<?xml version="1.0" encoding="utf-8"?>
<!-- Generator: Adobe Illustrator 28.0.0, SVG Export Plug-In . SVG Version: 6.00 Build 0)  -->
<svg version="1.1" id="Capa_1" xmlns="http://www.w3.org/2000/svg" xmlns:xlink="http://www.w3.org/1999/xlink" x="0px" y="0px"
	 viewBox="0 0 525.4 377.7" style="enable-background:new 0 0 525.4 377.7;" xml:space="preserve">
<path d="M112.8,275.5c-7.4,0-14.7,0-22,0c-15.9,0-31.8-0.1-47.6,0c-7.7,0-14.4-2.3-19.8-7.6c-11.1-10.8-8.7-27.6,5.1-35
	c14.8-7.9,29.8-15.2,44.7-22.8c44.8-22.7,89.6-45.4,134.4-68c2.2-1.1,3.3-2.3,3.1-4.9c-0.3-3.1-0.1-6.2-0.1-9.3
	c0.1-5.9,2.2-8.2,8.2-9c2.2-0.3,4.4-0.6,6.4-1.3c12.6-4.2,19-16,15.7-28.9c-3.1-12.3-14.7-19.9-27.3-17.9
	c-9.4,1.5-18.8,10.3-18.8,18.9c0,4.8-3.4,7.5-7.8,7.1c-4.1-0.4-6.6-3.4-6.3-8.3c0.4-8.3,4-15.2,9.9-20.9c11.1-10.7,24.2-14.2,39-9.5
	c15.2,4.9,23.9,15.9,26.1,31.3c3,20.5-8.1,36.5-28.3,42.4c-0.9,0.3-1.9,1.6-2.2,2.7c-1,4.2,0.8,6.5,4.9,8.5
	c18.6,9,36.9,18.5,55.3,27.9c2.2,1.1,3.9,1.1,6-0.1c4.5-2.5,9.3-4.6,13.8-7.2c1.1-0.6,2.1-2.3,2.2-3.6c0.3-3.5,0.1-7.1,0.1-10.6
	c0.1-4.9,2.3-7.2,7.1-8.1c3.4-0.6,6.9-1.3,10-2.6c9.7-4.1,14.6-13,13.7-24.2c-0.8-10-8.2-18.7-18-21.1c-9.7-2.4-20.4,1.6-25.7,10
	c-1.5,2.4-2.4,5.4-2.8,8.3c-0.7,5-3.4,7.9-7.9,7.6c-4.3-0.3-6.9-3.6-6.4-8.5c1.3-14.4,9.8-23.7,22.7-29.1
	c20.5-8.6,42.9,1.6,50.5,22.4c7.7,21.3-3.6,43.4-25.1,49.7c-1.4,0.4-4,0-3.7,2.6c0.3,2.8-1.3,5.8,2.8,7.8
	c58.9,29.6,117.6,59.4,176.4,89.2c6.3,3.2,11.6,7.1,13.9,14.1c4.2,12.9-4.9,27-19.2,29.7c-2.1,0.4-4.4,0.7-6.5,0.7
	c-116.5,0-232.9,0.1-349.4,0c-11.1,0-19.9-4.8-24.8-15.1C114,280.7,113.6,278.2,112.8,275.5L112.8,275.5z M145,260.9
	c0.1,0.2,0.1,0.5,0.2,0.7c0.8,0,1.6,0,2.4,0c81.1,0,162.2,0,243.3,0c1.4,0,2.8,0,4.2-0.2c5.4-0.9,9.4-4.2,9.8-8.4
	c0.5-5-3.1-7.2-6.9-9.1c-35.5-18-71-35.9-106.5-54c-2.4-1.2-4.1-1.1-6.4,0.1c-39.8,20.2-79.6,40.4-119.5,60.6
	C158.7,254,151.8,257.4,145,260.9L145,260.9z M272.5,180.4c-1.4-0.8-2.5-1.3-3.6-1.9c-16-8.1-31.9-16.1-47.8-24.3
	c-2.3-1.2-4-1.1-6.3,0c-59,29.9-118,59.8-177,89.6c-1.1,0.6-2.3,1.2-3.3,1.9c-4.7,3.3-5,9.5-0.1,12.7c2.6,1.7,6,3,9,3
	c24.1,0.2,48.2,0.2,72.3,0.1c1.1,0,2.3-0.7,3.2-1.4c3.3-2.2,6.4-5,9.9-6.8c46.6-23.7,93.3-47.3,139.9-70.9
	C269.8,181.9,271,181.2,272.5,180.4L272.5,180.4z M128.1,275.5c-0.1,0.6-0.2,0.8-0.1,1c0.1,0.3,0.2,0.7,0.4,1
	c2.7,5,7.2,6.4,12.5,6.4c115.3,0,230.6,0,345.9,0c1.7,0,3.5-0.1,5.2-0.3c4.9-0.6,9-4.1,9.8-8.1c0.7-3.6-1.5-6.6-6.4-9.1
	c-0.4-0.2-0.8-0.4-1.2-0.6c-28.7-14.5-57.4-29.1-86.2-43.6c-30.2-15.3-60.3-30.5-90.5-45.8c-1.2-0.6-2.9-1-4-0.6
	c-3.1,1.2-5.9,2.9-9.2,4.6c1.4,0.8,2.4,1.3,3.4,1.8c18.8,9.5,37.7,19.1,56.5,28.6c14.7,7.5,29.6,14.6,44,22.6
	c13.2,7.3,15,23.9,4.2,34.5c-5.7,5.6-12.6,7.7-20.5,7.7c-86.4-0.1-172.9,0-259.3,0L128.1,275.5L128.1,275.5z"/>
</svg>
